<svg xmlns="http://www.w3.org/2000/svg" version="1.1" viewBox="88.59 68.62 1684.7 401.55">
<g id="#000000ff">
<path fill="#ffffff" opacity="1.00" d=" M 213.11 81.11 C 215.79 74.62 222.19 70.07 229.08 69.11 C 235.87 68.20 243.18 68.33 249.38 71.59 C 258.87 76.28 265.74 84.57 273.11 91.89 C 285.04 104.20 298.98 115.60 315.84 120.09 C 324.83 121.98 334.50 123.66 343.40 120.43 C 349.46 118.40 354.02 113.74 359.06 110.04 C 368.58 102.94 380.93 98.87 392.80 101.13 C 399.72 102.37 405.01 107.44 409.63 112.38 C 416.64 120.07 424.06 127.50 429.71 136.30 C 437.30 147.87 442.18 160.92 447.18 173.74 C 452.68 188.13 457.61 202.77 460.97 217.82 C 464.33 239.56 464.97 261.83 461.51 283.61 C 460.91 287.33 459.75 290.93 458.70 294.54 C 456.07 304.42 453.71 314.62 448.56 323.56 C 447.61 325.61 445.41 326.12 443.37 326.33 C 441.40 319.67 439.90 312.88 439.02 305.99 C 437.81 296.44 432.80 288.01 430.04 278.91 C 427.51 270.43 423.66 262.42 419.11 254.84 C 414.51 247.26 410.48 239.15 404.33 232.66 C 400.30 228.17 393.56 227.20 388.01 228.97 C 384.64 230.03 382.94 233.39 381.21 236.18 C 378.06 241.38 376.14 247.35 371.99 251.91 C 367.67 249.00 366.89 243.55 364.75 239.18 C 361.59 231.69 353.44 226.27 345.24 227.18 C 337.33 228.60 331.61 235.58 328.81 242.72 C 325.17 254.78 326.19 267.59 327.05 279.98 C 328.25 293.21 328.04 306.58 330.34 319.69 C 334.49 347.58 341.31 375.05 350.23 401.80 C 354.04 414.18 358.45 426.39 363.71 438.24 C 367.25 446.40 370.07 454.88 374.26 462.76 C 375.61 465.02 375.87 467.67 374.99 470.17 C 364.42 469.51 356.63 461.44 349.54 454.46 C 334.90 439.29 320.77 423.45 309.25 405.73 C 299.28 390.15 289.74 374.28 281.05 357.95 C 272.32 341.16 266.00 323.27 259.39 305.58 C 256.33 297.36 252.49 289.43 249.94 281.03 C 247.54 274.05 244.79 267.16 241.29 260.66 C 239.19 256.63 234.92 254.34 230.63 253.38 C 222.25 250.93 213.58 256.14 208.74 262.74 C 204.25 269.08 204.79 277.18 202.96 284.40 C 196.55 281.79 192.59 275.86 187.34 271.68 C 182.86 268.03 177.86 264.44 171.99 263.69 C 165.16 263.81 160.15 270.50 160.02 277.00 C 159.64 285.02 159.95 293.11 160.92 301.09 C 163.42 314.00 166.36 326.97 171.95 338.95 C 174.65 345.31 178.73 351.65 177.86 358.88 C 175.41 358.79 172.72 358.93 170.71 357.29 C 165.03 353.03 160.26 347.71 155.44 342.54 C 143.64 329.34 129.63 317.86 120.66 302.35 C 109.91 283.95 100.95 264.36 95.24 243.79 C 93.59 235.87 90.96 228.13 90.27 220.03 C 88.53 203.42 88.53 186.70 88.62 170.02 C 88.82 162.65 89.26 154.83 93.41 148.46 C 97.05 142.63 101.33 135.42 108.98 134.91 C 120.66 134.10 131.39 139.69 142.43 142.52 C 153.45 144.96 164.73 146.62 176.04 146.25 C 184.77 145.91 193.91 142.46 198.94 134.97 C 205.14 126.78 205.50 116.23 207.67 106.59 C 209.55 98.11 209.25 89.08 213.11 81.11 M 255.28 102.13 C 253.20 103.48 250.74 104.62 249.43 106.83 C 248.11 110.22 250.99 113.63 253.68 115.36 C 258.16 116.77 262.76 113.90 265.39 110.40 C 269.37 105.52 269.87 98.68 268.19 92.79 C 263.77 95.75 259.91 99.48 255.28 102.13 M 213.10 97.08 C 213.84 103.84 216.92 110.43 222.25 114.78 C 225.81 117.76 230.77 120.23 235.46 118.55 C 237.71 117.69 240.84 116.71 241.16 113.90 C 241.45 111.89 241.74 109.47 240.32 107.80 C 237.58 105.79 234.16 105.12 231.04 103.92 C 224.95 101.91 219.32 98.70 213.10 97.08 Z"/>
<path fill="#ffffff" opacity="1.00" d=" M 715.01 142.92 C 715.96 139.92 718.93 138.06 721.99 137.87 C 727.97 137.31 734.00 137.72 740.00 137.58 C 743.67 137.70 747.93 137.46 750.83 140.16 C 753.24 142.38 753.28 145.93 753.44 148.96 C 753.44 170.64 753.30 192.33 753.47 214.01 C 758.40 209.78 762.91 204.97 768.59 201.70 C 780.99 194.39 796.28 192.89 810.15 196.24 C 828.10 199.92 843.53 213.64 849.40 230.97 C 852.01 238.01 853.42 245.48 853.38 252.99 C 853.41 280.35 853.34 307.70 853.41 335.05 C 853.47 338.71 852.59 343.25 848.66 344.60 C 843.94 346.14 838.87 345.31 834.00 345.50 C 829.07 345.29 823.97 346.13 819.19 344.67 C 815.29 343.28 814.10 338.80 814.28 335.08 C 814.40 310.71 814.32 286.35 814.40 261.99 C 814.42 254.99 813.47 247.60 809.34 241.74 C 804.28 234.57 796.21 228.58 787.04 229.12 C 778.21 228.48 769.91 232.77 763.52 238.53 C 754.83 246.82 752.64 259.49 753.37 271.01 C 753.47 291.34 753.31 311.67 753.47 332.01 C 753.40 335.13 753.48 338.39 752.26 341.33 C 750.86 344.49 747.11 345.38 743.97 345.45 C 737.64 345.60 731.30 345.48 724.97 345.50 C 721.73 345.41 717.76 345.25 715.78 342.25 C 713.61 338.58 713.79 334.11 713.69 330.00 C 713.86 317.00 713.70 304.00 713.84 291.00 C 714.37 280.01 714.35 268.99 713.83 258.00 C 713.69 225.34 713.79 192.67 713.77 160.00 C 713.85 154.31 713.29 148.43 715.01 142.92 Z"/>
<path fill="#ffffff" opacity="1.00" d=" M 1275.83 159.52 C 1280.70 158.60 1285.60 156.77 1290.64 157.49 C 1293.93 158.32 1295.29 162.03 1295.51 165.10 C 1296.11 175.95 1295.02 186.86 1295.95 197.71 C 1304.96 198.23 1314.03 197.16 1323.02 198.16 C 1327.10 198.36 1329.95 202.15 1330.18 206.03 C 1330.66 212.28 1330.71 218.62 1330.08 224.86 C 1329.76 229.03 1325.99 232.28 1321.88 232.31 C 1313.20 232.80 1304.50 231.87 1295.83 232.67 C 1295.32 252.43 1295.81 272.22 1295.60 291.99 C 1295.77 298.03 1295.53 305.17 1300.36 309.63 C 1305.83 314.79 1313.79 315.61 1320.98 315.34 C 1324.70 315.40 1329.81 315.17 1331.71 319.14 C 1333.10 323.27 1332.51 327.75 1332.65 332.04 C 1332.56 336.15 1332.75 341.23 1328.99 343.91 C 1321.12 349.32 1311.08 348.64 1301.99 348.66 C 1292.51 348.92 1283.09 345.95 1275.18 340.83 C 1268.20 336.29 1263.17 329.26 1260.39 321.48 C 1255.90 310.56 1256.57 298.55 1256.55 287.00 C 1256.50 268.78 1256.65 250.56 1256.50 232.34 C 1250.40 231.41 1244.22 232.12 1238.10 231.63 C 1234.52 231.46 1231.74 228.34 1231.33 224.91 C 1230.42 219.31 1230.64 213.59 1230.99 207.95 C 1231.29 204.55 1232.03 200.22 1235.68 198.87 C 1242.31 196.88 1249.31 198.56 1256.10 197.79 C 1257.08 188.58 1255.98 179.32 1256.56 170.10 C 1256.64 167.65 1257.66 165.10 1259.95 163.94 C 1264.80 161.19 1270.50 160.79 1275.83 159.52 Z"/>
<path fill="#ffffff" opacity="1.00" d=" M 928.50 197.74 C 945.36 192.54 964.32 193.54 980.10 201.69 C 987.29 204.54 992.93 209.90 998.53 215.04 C 998.85 210.68 998.29 206.06 1000.03 201.95 C 1002.06 197.94 1007.11 198.01 1010.97 197.81 C 1017.61 197.85 1024.31 197.38 1030.90 198.40 C 1034.03 198.64 1035.91 201.59 1036.55 204.39 C 1037.89 210.16 1037.19 216.14 1037.31 222.00 C 1037.36 259.01 1037.32 296.02 1037.33 333.03 C 1037.16 336.22 1037.08 339.66 1035.41 342.49 C 1033.25 345.35 1029.25 345.35 1026.02 345.49 C 1019.72 345.45 1013.41 345.67 1007.13 345.38 C 1004.01 345.29 1000.45 343.86 999.52 340.60 C 998.42 336.56 998.78 332.33 998.68 328.19 C 992.71 334.21 986.08 339.74 978.19 343.04 C 963.53 349.07 946.93 350.29 931.55 346.49 C 918.76 343.58 907.27 336.11 898.52 326.47 C 891.78 319.01 887.07 309.97 883.35 300.70 C 879.88 292.27 879.37 283.03 878.87 274.05 C 878.70 265.13 879.36 256.09 881.79 247.48 C 887.04 231.20 896.94 215.98 911.31 206.37 C 916.71 202.92 922.46 199.92 928.50 197.74 M 949.41 229.81 C 944.47 230.79 939.90 233.10 935.68 235.78 C 928.22 240.45 923.58 248.40 920.42 256.39 C 915.60 268.86 917.29 283.34 924.20 294.69 C 929.05 302.67 936.10 309.86 945.28 312.54 C 956.93 316.64 970.41 314.60 980.49 307.53 C 988.44 301.72 994.90 293.38 997.38 283.75 C 999.06 275.51 999.16 266.81 997.03 258.65 C 993.25 246.70 983.91 236.74 972.52 231.66 C 965.28 228.56 957.07 228.85 949.41 229.81 Z"/>
<path fill="#ffffff" opacity="1.00" d=" M 1140.48 196.81 C 1155.08 192.61 1171.36 194.28 1184.85 201.24 C 1203.91 210.57 1214.97 232.20 1214.74 252.97 C 1214.71 280.34 1214.71 307.71 1214.81 335.08 C 1214.88 338.60 1214.10 342.86 1210.48 344.40 C 1205.88 346.21 1200.80 345.30 1196.00 345.50 C 1190.74 345.27 1185.31 346.17 1180.19 344.69 C 1176.27 343.30 1175.37 338.70 1175.42 335.04 C 1175.50 309.68 1175.46 284.32 1175.50 258.96 C 1175.77 249.47 1170.90 240.28 1163.42 234.59 C 1152.32 225.48 1134.78 228.10 1124.98 237.95 C 1118.43 244.50 1114.33 253.61 1114.42 262.94 C 1114.43 286.30 1114.38 309.66 1114.52 333.01 C 1114.43 336.29 1114.43 339.84 1112.61 342.71 C 1110.91 345.13 1107.63 345.27 1104.97 345.45 C 1098.96 345.58 1092.95 345.44 1086.94 345.53 C 1083.57 345.49 1079.65 345.54 1077.20 342.83 C 1075.17 340.80 1075.27 337.73 1075.16 335.08 C 1075.32 292.37 1075.19 249.65 1075.23 206.93 C 1075.10 203.70 1076.43 200.09 1079.71 198.91 C 1085.27 197.12 1091.24 197.92 1096.99 197.74 C 1101.55 197.91 1106.50 197.28 1110.72 199.37 C 1115.32 202.71 1114.27 209.10 1114.63 214.05 C 1121.74 206.39 1130.54 200.18 1140.48 196.81 Z"/>
<path fill="#ffffff" opacity="1.00" d=" M 1708.89 195.16 C 1726.62 192.54 1745.82 198.62 1757.95 212.04 C 1768.38 224.05 1773.77 240.14 1773.21 256.00 C 1773.20 281.67 1773.15 307.34 1773.29 333.01 C 1773.12 336.21 1773.37 339.78 1771.46 342.53 C 1769.48 345.07 1766.01 345.41 1763.04 345.49 C 1757.00 345.55 1750.97 345.48 1744.94 345.51 C 1742.07 345.40 1738.82 345.47 1736.53 343.48 C 1733.94 341.10 1733.79 337.31 1733.67 334.04 C 1733.70 308.34 1733.76 282.64 1733.69 256.94 C 1733.82 246.99 1728.66 236.98 1719.91 232.03 C 1714.66 228.78 1708.15 228.68 1702.23 229.59 C 1693.16 231.50 1685.20 237.74 1680.89 245.92 C 1677.10 252.24 1676.45 259.79 1676.51 267.00 C 1676.54 290.02 1676.56 313.04 1676.57 336.06 C 1676.78 340.00 1674.56 344.38 1670.38 345.07 C 1664.29 345.99 1658.10 345.27 1651.98 345.52 C 1647.89 345.36 1643.11 346.13 1639.77 343.22 C 1637.42 341.22 1637.27 337.92 1637.18 335.08 C 1637.20 309.05 1637.29 283.01 1637.16 256.98 C 1637.23 247.16 1632.14 237.41 1623.68 232.31 C 1618.02 228.64 1610.84 228.64 1604.43 229.80 C 1595.98 231.95 1588.37 237.67 1584.34 245.45 C 1581.22 251.45 1579.28 258.15 1579.40 264.95 C 1579.47 287.97 1579.37 311.00 1579.48 334.02 C 1579.34 336.96 1579.38 340.20 1577.65 342.73 C 1575.59 345.27 1572.01 345.38 1569.03 345.50 C 1563.33 345.53 1557.63 345.49 1551.94 345.51 C 1548.85 345.41 1545.28 345.44 1542.94 343.12 C 1540.71 340.68 1540.76 337.12 1540.59 334.03 C 1540.59 293.02 1540.66 252.01 1540.56 210.99 C 1540.70 206.99 1540.42 201.81 1544.25 199.34 C 1548.82 197.22 1554.08 197.91 1559.00 197.75 C 1564.61 197.96 1570.54 197.19 1575.90 199.24 C 1580.28 202.00 1579.15 208.06 1579.96 212.45 C 1587.38 206.33 1595.07 199.99 1604.51 197.28 C 1622.55 192.30 1643.28 195.94 1657.47 208.51 C 1662.38 212.81 1665.90 218.35 1669.62 223.65 C 1674.27 217.97 1678.07 211.46 1683.97 206.93 C 1691.29 201.31 1699.58 196.38 1708.89 195.16 Z"/>
<path fill="#ffffff" opacity="1.00" d=" M 599.93 196.49 C 612.87 194.35 626.54 194.60 638.99 199.06 C 647.46 202.66 656.01 206.80 662.56 213.42 C 675.25 225.73 683.48 242.62 685.42 260.17 C 686.02 272.85 686.63 286.03 682.15 298.15 C 679.62 305.22 676.85 312.34 672.45 318.50 C 668.78 323.73 664.17 328.19 659.54 332.55 C 651.43 340.39 640.49 344.38 629.77 347.12 C 614.52 350.16 598.07 348.80 583.98 341.97 C 577.26 338.84 571.84 333.72 566.40 328.82 C 566.08 352.56 566.35 376.31 566.23 400.06 C 566.06 403.27 565.86 406.99 563.24 409.25 C 560.20 411.99 555.81 411.56 552.02 411.65 C 546.38 411.50 540.71 411.90 535.09 411.42 C 531.91 411.20 528.69 409.12 527.98 405.88 C 526.92 400.99 527.54 395.95 527.48 391.00 C 527.57 343.67 527.52 296.33 527.60 249.00 C 527.56 235.99 527.73 222.98 527.43 209.98 C 527.43 206.21 527.54 201.44 531.22 199.29 C 534.53 197.64 538.39 197.86 542.00 197.73 C 547.93 197.86 553.93 197.37 559.79 198.45 C 562.43 198.84 564.71 200.83 565.43 203.41 C 566.45 207.19 566.26 211.14 566.48 215.01 C 575.81 206.21 586.99 198.48 599.93 196.49 M 598.40 229.76 C 592.98 230.81 587.88 233.23 583.38 236.38 C 567.07 247.82 561.98 271.21 569.56 289.19 C 572.62 297.14 578.46 303.80 585.47 308.55 C 596.63 315.83 611.68 316.78 623.51 310.53 C 630.38 306.78 636.71 301.57 640.71 294.75 C 647.90 282.67 648.66 267.21 643.50 254.23 C 640.56 248.03 636.47 242.26 631.25 237.79 C 622.19 230.25 609.88 227.64 598.40 229.76 Z"/>
<path fill="#ffffff" opacity="1.00" d=" M 1429.38 195.20 C 1440.99 195.13 1452.87 196.48 1463.62 201.16 C 1470.47 204.00 1477.30 207.17 1483.11 211.87 C 1490.54 217.46 1496.15 224.99 1501.38 232.57 C 1505.24 238.16 1507.25 244.74 1509.12 251.19 C 1512.56 262.77 1512.42 275.13 1510.73 286.98 C 1507.57 302.51 1499.11 316.76 1487.61 327.58 C 1480.34 335.19 1470.75 340.02 1461.02 343.69 C 1453.88 345.96 1446.61 348.30 1439.06 348.56 C 1428.08 348.76 1416.82 349.29 1406.27 345.67 C 1375.64 338.15 1351.08 309.72 1349.46 278.02 C 1348.81 266.94 1349.85 255.64 1353.34 245.07 C 1359.45 228.61 1371.48 214.33 1386.91 205.89 C 1399.57 198.06 1414.69 195.40 1429.38 195.20 M 1421.42 229.84 C 1402.83 233.53 1387.71 250.81 1387.88 269.99 C 1386.51 286.68 1396.69 303.13 1411.58 310.34 C 1420.51 313.65 1430.43 315.86 1439.85 313.25 C 1448.79 311.62 1456.87 306.65 1462.97 300.00 C 1473.61 287.19 1476.16 268.28 1468.98 253.20 C 1465.13 243.90 1457.28 236.81 1448.21 232.75 C 1439.99 228.50 1430.35 228.71 1421.42 229.84 Z"/>
</g>
</svg>